<?xml version="1.0" encoding="utf-8"?>
<!-- Generator: Adobe Illustrator 24.0.1, SVG Export Plug-In . SVG Version: 6.00 Build 0)  -->
<svg version="1.1" id="Layer_1" xmlns="http://www.w3.org/2000/svg" xmlns:xlink="http://www.w3.org/1999/xlink" x="0px" y="0px"
	 viewBox="0 0 80.4 33.1" style="enable-background:new 0 0 80.4 33.1;" xml:space="preserve">
<style type="text/css">
	.st0{fill:#00AEB2;}
	.st1{fill:#0D8E64;}
	.st2{fill:#F26322;}
</style>
<g>
	<g>
		<path class="st0" d="M14.6,31.4c-1.3,1.3-3.4,2.1-6.3,2.1c-2.8,0-4.9-0.8-6.2-2.1C0.5,29.8,0,27.8,0,24.5h5.1
			c0,1.7,0.2,2.8,0.9,3.6c0.5,0.5,1.2,0.9,2.3,0.9c1.2,0,1.9-0.3,2.4-0.9c0.7-0.8,0.9-1.9,0.9-3.6c0-3.4-0.5-4.3-3-5.3l-3.8-1.6
			c-3.3-1.4-4.5-3.1-4.5-8.1c0-2.9,0.9-5.2,2.6-6.8c1.4-1.2,3.2-1.9,5.5-1.9c2.6,0,4.5,0.7,5.8,1.9c1.7,1.6,2.3,3.9,2.3,7h-5.1
			c0-1.4-0.1-2.6-0.8-3.4c-0.5-0.6-1.2-0.9-2.3-0.9c-1,0-1.7,0.4-2.2,0.9C5.6,6.9,5.3,8,5.3,9.4c0,2.6,0.4,3.4,2.7,4.3l3.8,1.5
			c3.8,1.6,4.9,3.6,4.9,9C16.7,27.6,16.2,29.8,14.6,31.4"/>
	</g>
	<g>
		<polyline class="st0" points="29.7,5.6 29.7,33.2 24.7,33.2 24.7,5.6 19.3,5.6 19.3,1 35.1,1 35.1,5.6 29.7,5.6 		"/>
	</g>
	<g>
		<path class="st0" d="M78.1,30.5c-1.3,1.5-3.2,2.7-6.2,2.7h-8.2V1h8.2c3.1,0,4.9,1.2,6.2,2.7c2.4,2.7,2.3,7.2,2.3,13.4
			C80.4,23.3,80.5,27.8,78.1,30.5 M74.3,6.9c-0.5-0.8-1.4-1.3-2.6-1.3h-3v23h3c1.2,0,2.1-0.5,2.6-1.3c0.9-1.5,1.1-4.7,1.1-10.3
			S75.2,8.4,74.3,6.9z"/>
	</g>
	<g>
		<g>
			<path class="st0" d="M45,2.8c0,1.6-1.3,2.8-2.8,2.8c-1.6,0-2.8-1.3-2.8-2.8c0-1.6,1.3-2.8,2.8-2.8C43.8,0,45,1.3,45,2.8"/>
		</g>
		<g>
			<path class="st0" d="M59.8,2.8c0,1.6-1.3,2.8-2.8,2.8c-1.6,0-2.8-1.3-2.8-2.8C54.2,1.3,55.4,0,57,0C58.6,0,59.8,1.3,59.8,2.8"/>
		</g>
		<g>
			<path class="st1" d="M45,16.6c0,1.6-1.3,2.8-2.8,2.8c-1.6,0-2.8-1.3-2.8-2.8c0-1.6,1.3-2.8,2.8-2.8C43.8,13.8,45,15,45,16.6"/>
		</g>
		<g>
			<path class="st1" d="M52.4,16.6c0,1.6-1.3,2.8-2.8,2.8s-2.8-1.3-2.8-2.8c0-1.6,1.3-2.8,2.8-2.8S52.4,15,52.4,16.6"/>
		</g>
		<g>
			<path class="st1" d="M59.8,16.6c0,1.6-1.3,2.8-2.8,2.8c-1.6,0-2.8-1.3-2.8-2.8c0-1.6,1.3-2.8,2.8-2.8
				C58.6,13.8,59.8,15,59.8,16.6"/>
		</g>
		<path class="st2" d="M49.6,0c-1.6,0-2.8,1.3-2.8,2.8c0,0.4,0.1,0.8,0.2,1.1l-3.3,3.3c-0.4-0.3-0.9-0.4-1.5-0.4
			c-1.6,0-2.8,1.3-2.8,2.8c0,1.6,1.3,2.8,2.8,2.8c1.6,0,2.8-1.3,2.8-2.8c0-0.7-0.3-1.4-0.7-1.9l3.2-3.2c0.5,0.6,1.3,1,2.1,1
			c1.6,0,2.8-1.3,2.8-2.8S51.2,0,49.6,0z"/>
		<g>
			<path class="st0" d="M45,16.6c0,1.6-1.3,2.8-2.8,2.8c-1.6,0-2.8-1.3-2.8-2.8c0-1.6,1.3-2.8,2.8-2.8C43.8,13.8,45,15,45,16.6"/>
		</g>
		<g>
			<path class="st0" d="M59.8,16.6c0,1.6-1.3,2.8-2.8,2.8c-1.6,0-2.8-1.3-2.8-2.8c0-1.6,1.3-2.8,2.8-2.8
				C58.6,13.8,59.8,15,59.8,16.6"/>
		</g>
		<g>
			<path class="st0" d="M45,30.3c0,1.6-1.3,2.8-2.8,2.8c-1.6,0-2.8-1.3-2.8-2.8c0-1.6,1.3-2.8,2.8-2.8C43.8,27.5,45,28.8,45,30.3"/>
		</g>
		<g>
			<path class="st0" d="M52.4,30.3c0,1.6-1.3,2.8-2.8,2.8s-2.8-1.3-2.8-2.8c0-1.6,1.3-2.8,2.8-2.8S52.4,28.8,52.4,30.3"/>
		</g>
		<g>
			<path class="st0" d="M59.8,30.3c0,1.6-1.3,2.8-2.8,2.8c-1.6,0-2.8-1.3-2.8-2.8c0-1.6,1.3-2.8,2.8-2.8
				C58.6,27.5,59.8,28.8,59.8,30.3"/>
		</g>
		<path class="st2" d="M49.6,13.8c-1.6,0-2.8,1.3-2.8,2.8c0,0.4,0.1,0.8,0.2,1.1l-3.3,3.3c-0.4-0.3-0.9-0.4-1.5-0.4
			c-1.6,0-2.8,1.3-2.8,2.8c0,1.6,1.3,2.8,2.8,2.8c1.6,0,2.8-1.3,2.8-2.8c0-0.7-0.3-1.4-0.7-1.9l3.2-3.2c0.5,0.6,1.3,1,2.1,1
			c1.6,0,2.8-1.3,2.8-2.8S51.2,13.8,49.6,13.8z"/>
	</g>
</g>
</svg>
